# xmcd
#
# Track frame offsets: 
#        150
#        12282
#        32339
#        47249
#        65644
#        83802
#        97392
#        117274
#        135739
#        150649
#        165556
#        180598
#        199285
#
# Disc length: 3173 seconds
#
# Revision: 0
# Processed by: cddbd v1.5.2PL0 Copyright (c) Steve Scherf et al.
# Submitted via: ExactAudioCopy v0.95b4
#
DISCID=ae0c630d
DTITLE=Various Artist - It's All Connected
DYEAR=2207
DGENRE=Blues
TTITLE0=Asylum Street Spankers-Breathin'
TTITLE1=John Black-The Moon Blues
TTITLE2=Eden Brent-Darkness In The Delta
TTITLE3=Mark Lemhouse-Paper Sack
TTITLE4=Fiona Boyes-Chicken Wants Corn
TTITLE5=William Lee Ellis-Snakes In My Garden
TTITLE6=The Bo-Keys-Deuce And A Quarter
TTITLE7=Mary Flower-Blues My Naughty Sweetie Gives To Me
TTITLE8=Big Joe Duskin-Beer Drinking Woman
TTITLE9=Terry Robb-Resting Place
TTITLE10=Chris Cotton-Blues For Big Bill
TTITLE11=Bluff City Backsliders-Pony Blues
TTITLE12=Calvin Newborn-Newborn Blues
EXTD=
EXTT0=
EXTT1=
EXTT2=
EXTT3=
EXTT4=
EXTT5=
EXTT6=
EXTT7=
EXTT8=
EXTT9=
EXTT10=
EXTT11=
EXTT12=
PLAYORDER=
